<svg xmlns="http://www.w3.org/2000/svg" xmlns:xlink="http://www.w3.org/1999/xlink" viewBox="0 0 600 413.22" xmlns:v="https://vecta.io/nano"><style><![CDATA[.Ae,.K,.Al,.w,.Ag,.AM,.o,.y,.AB,.AE,.Af,.t,.u,.s,.AC,.At,.T,.U,.v,.r,.AD,.AA,.Au,.Aw,.V,.As,.j,.Av,.Y,.z,.AL,.a,.x,.q,.AI,.AK,.Ax,.AQ,.l,.g,.BQ,.AJ,.p,.AH,.L,.Ak,.Ab{mix-blend-mode:multiply}.B{isolation:isolate}.Ay,.BR{mix-blend-mode:soft-light}.M,.Q,.P{mix-blend-mode:screen}.BZ{opacity:.5}.Ba{fill:#fff}.Bb{opacity:.6}.Bc{opacity:.3}.Bd{opacity:.76}.Be{fill:#d1d4fb}.Bf{fill-rule:evenodd}]]></style><defs><clipPath id="A"><path d="M0 0h600v400H0z" fill="none"/></clipPath><linearGradient id="B" x1="0" y1="200" x2="600" y2="200" xlink:href="#Ax"><stop offset="0" stop-color="#9e8cef"/><stop offset=".53" stop-color="#9f8dee"/><stop offset=".72" stop-color="#a692ee"/><stop offset=".86" stop-color="#b29cee"/><stop offset=".97" stop-color="#c3a9ee"/><stop offset="1" stop-color="#caafee"/></linearGradient><linearGradient id="C" x1="168.125" y1="243.887" x2="137.994" y2="179.388" xlink:href="#Ax"><stop offset="0" stop-color="#dbccff"/><stop offset="1" stop-color="#d1bbff"/></linearGradient><linearGradient id="D" x1="169.293" y1="246.41" x2="139.162" y2="181.911" xlink:href="#Ax"><stop offset="0" stop-color="#b5a6e7"/><stop offset="1" stop-color="#7760bf"/></linearGradient><linearGradient id="E" x1="161.801" y1="230.374" x2="149.1" y2="203.184" xlink:href="#D"/><linearGradient id="F" x1="145.494" y1="205.531" x2="153.213" y2="201.925" xlink:href="#Ax"><stop offset="0" stop-color="#8b8be0"/><stop offset="1" stop-color="#a177b7"/></linearGradient><linearGradient id="G" x1="150.192" y1="205.522" x2="148.008" y2="200.847" xlink:href="#Ax"><stop offset="0" stop-color="#fff"/><stop offset="1" stop-color="#a177b7"/></linearGradient><linearGradient id="H" x1="167.183" y1="231.237" x2="153.182" y2="201.266" xlink:href="#Ax"><stop offset="0"/><stop offset="1" stop-color="#fff"/></linearGradient><linearGradient id="I" x1="280.3" y1="400" x2="280.3" y2="310.79" xlink:href="#Ax"><stop offset="0" stop-color="#6456c0"/><stop offset="1" stop-color="#5f2c95"/></linearGradient><radialGradient id="J" cx="232.5" cy="368.65" fx="232.5" fy="368.65" r="27.03" gradientTransform="translate(868.53 213.73) rotate(90) scale(.66 1.71)" xlink:href="#Ax"><stop offset="0" stop-color="#4b474b"/><stop offset="1"/></radialGradient><radialGradient id="K" cx="351.33" cy="352.81" fx="351.33" fy="352.81" gradientTransform="translate(87.07 -237.04) scale(.66 1.71) skewX(-.01)" xlink:href="#J"/><linearGradient id="L" x1="251.43" y1="368.68" x2="274.82" y2="368.68" xlink:href="#Ax"><stop offset="0" stop-color="#9e8cef"/><stop offset="1" stop-color="#caafee"/></linearGradient><linearGradient id="M" x1="341.53" x2="364.93" gradientTransform="translate(647.63) rotate(-180) scale(1 -1)" xlink:href="#L"/><linearGradient id="N" x1="277.16" y1="400" x2="277.16" y2="310.79" xlink:href="#Ax"><stop offset="0" stop-color="#ccf"/><stop offset="1" stop-color="#755cbb"/></linearGradient><linearGradient id="O" x1="287.55" y1="355.4" x2="287.55" y2="331.06" xlink:href="#N"/><linearGradient id="P" x1="259.36" y1="346.45" x2="259.36" y2="322.61" xlink:href="#N"/><linearGradient id="Q" x1="283.54" y1="176.45" x2="283.54" y2="140.84" xlink:href="#Ax"><stop offset="0" stop-color="#d5cdf8"/><stop offset="1" stop-color="#f3edfb"/></linearGradient><linearGradient id="R" x1="265.21" y1="158.61" x2="301.87" y2="158.61" xlink:href="#N"/><linearGradient id="S" x1="273.06" y1="318.73" x2="273.06" y2="139.29" xlink:href="#L"/><linearGradient id="T" x1="198.59" y1="206.92" x2="242.29" y2="206.92" xlink:href="#N"/><linearGradient id="U" x1="197.24" y1="257.17" x2="197.24" y2="173.26" xlink:href="#Ax"><stop offset="0" stop-color="#9e8cef"/><stop offset="1" stop-color="#dac7f3"/></linearGradient><linearGradient id="V" x1="341.53" y1="232.99" x2="397.84" y2="232.99" xlink:href="#Ax"><stop offset="0" stop-color="#a999f1"/><stop offset="1" stop-color="#dac7f3"/></linearGradient><linearGradient id="W" x1="178.92" y1="161.82" x2="178.92" y2="139.69" xlink:href="#Ax"><stop offset=".02" stop-color="#ffc2a9"/><stop offset="1" stop-color="#ff9595"/></linearGradient><linearGradient id="X" x1="192.86" y1="161.29" x2="192.86" y2="124.67" xlink:href="#Ax"><stop offset="0" stop-color="#ffeadb"/><stop offset=".99" stop-color="#c27cb6"/></linearGradient><linearGradient id="Y" x1="191.67" y1="186.21" x2="191.67" y2="129.75" xlink:href="#W"/><linearGradient id="Z" x1="181.57" y1="177.4" x2="199.32" y2="177.4" xlink:href="#Ax"><stop offset=".02" stop-color="#d1a1d6"/><stop offset=".99" stop-color="#bd89c4"/></linearGradient><linearGradient id="a" x1="399" y1="220.6" x2="399" y2="145.1" xlink:href="#W"/><linearGradient id="b" x1="407.92" y1="196.41" x2="407.92" y2="158.9" xlink:href="#X"/><linearGradient id="c" x1="415.32" y1="183.46" x2="415.32" y2="166.65" xlink:href="#Ax"><stop offset="0" stop-color="#ffb0b0"/><stop offset=".98" stop-color="#ffc2a9"/></linearGradient><linearGradient id="d" x1="425.07" y1="186.05" x2="425.07" y2="176.83" xlink:href="#c"/><linearGradient id="e" x1="385.63" y1="204.43" x2="402.78" y2="204.43" xlink:href="#Z"/><linearGradient id="f" x1="361.76" y1="263.62" x2="361.76" y2="179.11" xlink:href="#N"/><linearGradient id="g" x1="175.69" y1="246.59" x2="317.04" y2="246.59" xlink:href="#N"/><linearGradient id="h" x1="300.31" y1="222.94" x2="327.32" y2="222.94" xlink:href="#Ax"><stop offset="0" stop-color="#ccedff"/><stop offset="1" stop-color="#755cbb"/></linearGradient><linearGradient id="i" x1="275.8" y1="270.36" x2="315.51" y2="270.36" xlink:href="#h"/><linearGradient id="j" x1="277.64" y1="288.31" x2="320.06" y2="288.31" xlink:href="#h"/><linearGradient id="k" x1="241.13" y1="243.86" x2="241.13" y2="196.25" xlink:href="#h"/><linearGradient id="l" x1="244.96" y1="247.86" x2="244.96" y2="211.77" xlink:href="#h"/><linearGradient id="m" x1="187.93" y1="201.73" x2="187.93" y2="174.46" xlink:href="#h"/><linearGradient id="n" x1="209.99" y1="177.72" x2="220.98" y2="177.72" xlink:href="#h"/><linearGradient id="o" x1="329.45" y1="243.86" x2="329.45" y2="193.32" xlink:href="#N"/><linearGradient id="p" x1="386.27" y1="232.99" x2="386.27" y2="206.58" xlink:href="#N"/><linearGradient id="q" x1="356.32" y1="231.81" x2="356.32" y2="211.62" xlink:href="#N"/><linearGradient id="r" x1="182.22" y1="203.47" x2="182.22" y2="195.97" xlink:href="#h"/><linearGradient id="s" x1="202.25" y1="226.33" x2="202.25" y2="185.35" xlink:href="#N"/><linearGradient id="t" x1="307.67" y1="197.48" x2="307.67" y2="166.65" xlink:href="#h"/><linearGradient id="u" x1="267.27" y1="193.32" x2="267.27" y2="150.76" xlink:href="#h"/><linearGradient id="v" x1="252.9" y1="201.1" x2="323.99" y2="201.1" xlink:href="#Ax"><stop offset="0" stop-color="#8642a0"/><stop offset="1" stop-color="#6456c0"/></linearGradient><linearGradient id="w" x1="259.03" y1="160.08" x2="305.29" y2="160.08" xlink:href="#N"/><linearGradient id="x" x1="377.95" y1="229.98" x2="377.95" y2="203.21" xlink:href="#N"/><linearGradient id="y" x1="340.11" y1="260.18" x2="340.11" y2="179.11" xlink:href="#N"/><linearGradient id="z" x1="252.95" y1="298.26" x2="252.95" y2="275.02" xlink:href="#N"/><linearGradient id="AA" x1="298.09" y1="291.88" x2="298.09" y2="280.59" xlink:href="#N"/><linearGradient id="AB" x1="297.6" y1="146.81" x2="297.6" y2="69.6" xlink:href="#W"/><linearGradient id="AC" x1="268.82" y1="115.66" x2="268.82" y2="92.89" xlink:href="#W"/><linearGradient id="AD" x1="308.33" y1="124.27" x2="309.28" y2="119.3" xlink:href="#Ax"><stop offset="0" stop-color="#e1616a"/><stop offset="1" stop-color="#ff8883"/></linearGradient><linearGradient id="AE" x1="299.71" y1="120.46" x2="299.71" y2="70.73" xlink:href="#X"/><linearGradient id="AF" x1="297.29" y1="100.09" x2="297.29" y2="90.24" xlink:href="#Ax"><stop offset="0" stop-color="#cf6074"/><stop offset="1" stop-color="#f37270"/></linearGradient><linearGradient id="AG" x1="316.94" y1="103.22" x2="316.94" y2="94.65" xlink:href="#Ax"><stop offset="0" stop-color="#cf6074"/><stop offset="1" stop-color="#ff817f"/></linearGradient><linearGradient id="AH" x1="317.75" y1="108.21" x2="317.75" y2="88.92" xlink:href="#X"/><linearGradient id="AI" x1="298.63" y1="147.78" x2="298.63" y2="54.15" xlink:href="#Ax"><stop offset="0" stop-color="#2e33a0"/><stop offset="1" stop-color="#0665a5"/></linearGradient><linearGradient id="AJ" x1="323.23" y1="88.82" x2="323.23" y2="67.22" xlink:href="#Ax"><stop offset="0" stop-color="#ffeadb"/><stop offset=".99" stop-color="#8860c7"/></linearGradient><linearGradient id="AK" x1="293.79" y1="147.78" x2="293.79" y2="54.15" xlink:href="#Ax"><stop offset="0" stop-color="#ccc2db"/><stop offset=".99" stop-color="#8860c7"/></linearGradient><linearGradient id="AL" x1="300.07" y1="147.76" x2="300.07" y2="143.74" xlink:href="#Ax"><stop offset="0" stop-color="#776d7e"/><stop offset="1" stop-color="#9d68c2"/></linearGradient><linearGradient id="AM" x1="311.87" y1="60.87" x2="311.87" y2="57.88" xlink:href="#Ax"><stop offset="0" stop-color="#1f77d1"/><stop offset="1" stop-color="#0686c9"/></linearGradient><linearGradient id="AN" x1="292.83" y1="70.71" x2="292.83" y2="61.87" xlink:href="#AM"/><linearGradient id="AO" x1="324.85" y1="75.19" x2="324.85" y2="67.22" xlink:href="#AM"/><linearGradient id="AP" x1="272.13" y1="110.26" x2="261.93" y2="97.77" xlink:href="#Ax"><stop offset="0" stop-color="#ffeadb"/><stop offset=".99" stop-color="#b060f4"/></linearGradient><linearGradient id="AQ" x1="273.2" y1="108.65" x2="268.18" y2="102.51" xlink:href="#AP"/><linearGradient id="AR" x1="292.24" y1="71.5" x2="309.51" y2="71.5" xlink:href="#AM"/><linearGradient id="AS" x1="316.6" y1="123.14" x2="321.83" y2="123.14" xlink:href="#AM"/><linearGradient id="AT" x1="310.13" y1="119.24" x2="315.78" y2="119.24" xlink:href="#AM"/><linearGradient id="AU" x1="351.8" y1="132.95" x2="528.85" y2="132.95" xlink:href="#Ax"><stop offset="0" stop-color="#9d68c2"/><stop offset="1" stop-color="#aec2ff"/></linearGradient><linearGradient id="AV" x1="387.81" y1="199.82" x2="387.81" y2="146.42" xlink:href="#Ax"><stop offset="0" stop-color="#ccedff"/><stop offset="1" stop-color="#9d68c2"/></linearGradient><linearGradient id="AW" x1="478.87" y1="173.78" x2="478.87" y2="150.26" xlink:href="#AV"/><linearGradient id="AX" x1="506.63" y1="173.78" x2="506.63" y2="150.26" xlink:href="#AV"/><linearGradient id="AY" x1="450.66" y1="173.78" x2="450.66" y2="150.26" xlink:href="#AV"/><linearGradient id="AZ" x1="197.67" y1="115.99" x2="197.67" y2="91.37" xlink:href="#Ax"><stop offset="0" stop-color="#d93de3"/><stop offset="1" stop-color="#ff6dba"/></linearGradient><linearGradient id="Aa" x1="212.72" y1="115.99" x2="212.72" y2="91.37" xlink:href="#Ax"><stop offset="0" stop-color="#a242ea"/><stop offset="1" stop-color="#fe117e"/></linearGradient><linearGradient id="Ab" x1="193.4" y1="375.37" x2="206.71" y2="269.36" xlink:href="#Ax"><stop offset="0" stop-color="#067eff"/><stop offset="1" stop-color="#3e37a0"/></linearGradient><linearGradient id="Ac" x1="504.25" y1="113.31" x2="504.25" y2="104.37" xlink:href="#Ax"><stop offset="0" stop-color="#459fff"/><stop offset="1" stop-color="#a96dff"/></linearGradient><linearGradient id="Ad" x1="84.26" y1="218.04" x2="84.26" y2="206.92" xlink:href="#Ac"/><linearGradient id="Ae" x1="517.37" y1="113.31" x2="517.37" y2="104.37" xlink:href="#Ax"><stop offset="0" stop-color="#b31a8f"/><stop offset="1" stop-color="#fe117e"/></linearGradient><linearGradient id="Af" x1="229.2" y1="142.73" x2="229.2" y2="136.41" xlink:href="#Ae"/><linearGradient id="Ag" x1="440.86" y1="282.16" x2="440.86" y2="275.84" xlink:href="#v"/><linearGradient id="Ah" x1="112.34" y1="313.33" x2="112.34" y2="307.68" xlink:href="#v"/><linearGradient id="Ai" x1="136.04" y1="282.77" x2="136.04" y2="236.11" xlink:href="#Ax"><stop offset="0" stop-color="#d906e3"/><stop offset="1" stop-color="#ff6df9"/></linearGradient><linearGradient id="Aj" x1="458.23" y1="348.82" x2="458.23" y2="290.45" xlink:href="#Ai"/><linearGradient id="Ak" x1="382.493" y1="316.178" x2="388.794" y2="273.664" xlink:href="#Ax"><stop offset="0" stop-color="#1852a0"/><stop offset="1" stop-color="#067ed3"/></linearGradient><linearGradient id="Al" x1="377.795" y1="315.089" x2="389.17" y2="272.844" xlink:href="#Ak"/><linearGradient id="Am" x1="361.94" y1="289.27" x2="358.72" y2="261.66" gradientTransform="translate(181.34 -235.91) rotate(19.3) scale(1 1.57)" xlink:href="#Ax"><stop offset="0" stop-color="#188dc1"/><stop offset="1" stop-color="#06bfe7"/></linearGradient><linearGradient id="An" x1="412.35" y1="88.1" x2="423.68" y2="46.01" gradientTransform="matrix(1, 0, 0, 1, 0, 0)" xlink:href="#Am"/><linearGradient id="Ao" x1="392.87" y1="83.24" x2="401.32" y2="51.86" xlink:href="#Ak"/><linearGradient id="Ap" x1="121.92" y1="160.57" x2="129.65" y2="131.88" gradientTransform="translate(206.66) rotate(-180) scale(1 -1)" xlink:href="#Am"/><linearGradient id="Aq" x1="108.65" y1="157.26" x2="114.41" y2="135.87" gradientTransform="translate(206.66) rotate(-180) scale(1 -1)" xlink:href="#Ak"/><path id="Ar" d="M162.45 199.93h-.09l-.08 2.68c0 .11.05.17.17.18l7.54.23-.07 2.32-9.89-.3c-.24 0-.35-.13-.35-.38l.25-8.21c0-.25.13-.36.37-.36l9.61.29c.25 0 .37.13.36.38l-.07 2.32-2.37.8h-.1l.04-1.19c0-.09-.04-.14-.12-.14l-5.07-.15c-.07 0-.11.02-.13.05-.02.04-.03.08-.03.12l-.03 1.12 4.18.13-.06 1.82-3.5-.11-.54-1.59z"/><path id="As" d="M179.21 199.77h-.1l.03-.99c0-.1-.04-.15-.14-.15l-4.72-.14c-.17 0-.29.03-.36.1s-.1.18-.11.32v.22c-.01.17.01.28.07.33s.17.09.33.12l5.53.94a4.16 4.16 0 0 1 .89.25c.24.11.44.25.59.42s.25.38.31.63.08.54.07.88l-.02.71c-.01.37-.07.69-.17.97a1.68 1.68 0 0 1-.46.7c-.21.19-.49.32-.82.41-.34.09-.75.12-1.24.11l-7.96-.24.07-2.32 7.14.22c.21 0 .36-.03.43-.1.07-.08.11-.21.12-.41v-.25c.01-.16-.01-.27-.06-.33s-.15-.11-.31-.13l-5.34-.84c-.36-.06-.67-.14-.92-.25s-.46-.24-.62-.41-.27-.37-.34-.61-.09-.52-.08-.85l.02-.63c.02-.65.21-1.14.56-1.49.36-.35.93-.51 1.74-.48l7.95.24c.25 0 .38.14.37.4l-.06 1.84-2.37.79z"/><path id="At" d="M194.49 202.25v-.41c0-.14-.02-.27-.03-.38v-.11l2.51.08-.13 4.39c0 .23-.11.34-.32.34l-6.73-.2c-.66-.02-1.23-.12-1.69-.3s-.83-.43-1.11-.75-.48-.69-.59-1.14a4.89 4.89 0 0 1-.15-1.47l.06-1.84a5.37 5.37 0 0 1 .24-1.46c.14-.43.36-.8.66-1.1s.68-.52 1.15-.68c.47-.15 1.04-.22 1.7-.2l6.69.2c.24 0 .35.13.35.38l-.06 1.93-2.37.79h-.1l.03-.86c0-.08-.03-.12-.11-.13l-4.27-.13c-.25 0-.45 0-.62.05a.85.85 0 0 0-.42.22 1.04 1.04 0 0 0-.25.44c-.05.18-.09.41-.1.68l-.05 1.57c-.02.54.07.92.27 1.14s.54.34 1.02.35l4.24.13a.12.12 0 0 0 .14-.14l.04-1.36z"/><path id="Au" d="M443.19 196.07h75.2v1.74h-75.2z"/><path id="Av" d="M438.89 204.51h79.49v1.74h-79.49z"/><path id="Aw" d="M168.92 296.55h25.42v2.18h-25.42z"/><linearGradient id="Ax" gradientUnits="userSpaceOnUse"/></defs><g class="B" clip-path="url(#A)"><path d="M0 0h600v400H0z" fill="url(#B)"/><g fill="#f1f1f4"><path d="M148.21 196.1c0-.25.13-.36.35-.36l6.71.2c.66.02 1.23.12 1.69.3s.83.43 1.11.75.47.69.59 1.14.17.93.15 1.47l-.06 1.84a5.37 5.37 0 0 1-.24 1.46c-.14.43-.36.8-.66 1.1s-.68.52-1.15.68c-.47.15-1.04.22-1.7.2l-3.61-.11-.75-2.11h-.1l-.06 2.08-2.53-.08.26-8.57zm2.34 6.33l4.29.13c.48.01.83-.08 1.04-.29s.32-.58.34-1.12l.05-1.5c.02-.56-.07-.94-.27-1.15s-.54-.32-1.02-.33l-4.1-.12c-.06 0-.1.02-.14.05-.03.04-.05.08-.05.13l-.13 4.2z"/><use xlink:href="#Ar"/><use xlink:href="#As"/><path d="M182.57 205.72l.27-8.94 2.53.08-.27 8.94-2.53-.08z"/><use xlink:href="#At"/><path d="M202.31 197.37c.19 0 .32.04.4.1s.14.15.21.28l3.2 6.53c.05.1.13.15.23.15h.13c.13 0 .2-.05.2-.19l.2-6.73 2.3.07-.26 8.59c0 .24-.12.35-.35.34l-3.64-.11c-.17 0-.3-.03-.38-.09-.08-.05-.16-.15-.23-.29L201 199.5c-.05-.1-.12-.15-.23-.15h-.12c-.13 0-.2.06-.2.19l-.2 6.72-2.3-.07.26-8.58c0-.25.12-.36.35-.36l3.76.11z"/></g><circle cx="269.05" cy="195.53" r="155.02" transform="matrix(.707107 -.707107 .707107 .707107 -59.46 247.52)" fill="#e0f3ff"/><path d="M155.1 185.61c-3.81-6.56-10.55-9.26-10.55-9.26l-2.35 1.1 5.29 9.6c-.71 3.69-3.24 5.72-3.24 5.72v-.02s-3.19.64-6.47-1.19l-3.97-10.22-2.35 1.1s-2.25 6.9.33 14.04c0 0 1 2.31 1.18 2.52.93 1.09 3.36 2.34 8.06 2.05l16.2 30.91c-1.35 2.32-1.58 5.23-.36 7.83a8.47 8.47 0 1 0 15.35-7.17 8.43 8.43 0 0 0-6.24-4.75l-13.31-32.25c3.17-3.34 3.84-5.97 3.6-7.49-.05-.32-1.18-2.52-1.18-2.52zm13.33 53.31l-4.29 2.01-3.88-2.71.41-4.72 4.29-2.01 3.88 2.71-.41 4.72z" fill="url(#C)"/><path d="M156.27 188.13c-3.81-6.56-10.55-9.26-10.55-9.26l-2.35 1.1 5.29 9.6c-.71 3.69-3.24 5.72-3.24 5.72v-.02s-3.19.64-6.47-1.19l-3.97-10.22-2.35 1.1s-2.25 6.9.33 14.04c0 0 3.66 4.91 9.23 4.57l16.2 30.91c-1.35 2.32-1.58 5.23-.36 7.83a8.47 8.47 0 1 0 15.35-7.17 8.43 8.43 0 0 0-6.24-4.75l-13.31-32.25c3.84-4.05 2.42-10.01 2.42-10.01zm13.33 53.31l-4.29 2.01-3.88-2.71.41-4.72 4.29-2.01 3.88 2.71-.41 4.72z" fill="url(#D)"/><g fill="#e5e2ff"><path d="M131.451 182.452l2.347-1.096 1.177 2.519-2.347 1.096zm10.735-4.996l2.347-1.096 1.177 2.519-2.347 1.096zm21.944 63.482l4.294-2.006 1.177 2.519-4.294 2.006z"/></g><path d="M145.66 205.86l13.09 25.15c3.44.16 5.28-2.47 5.28-2.47l-10.65-26.29c-4.78-.18-7.72 3.61-7.72 3.61zm17.36 22.89a7.36 7.36 0 0 1-1.69 1.11 6.5 6.5 0 0 1-1.81.54l-13.11-24.63a13.43 13.43 0 0 1 3.15-2.07c1.06-.49 2.14-.81 3.24-.96l10.22 26.01z" fill="url(#E)"/><path d="M163.02,228.75l1.01-.21s-1.5,2.66-5.28,2.47l.77-.61s1.86-.22,3.5-1.65Z" fill="#e5e2ff"/><path class="K" d="M145.66 205.86l.75-.1s2.24-2.32 6.39-3.02l.57-.48s-1.67-.29-4.27.92-3.45 2.68-3.45 2.68z" fill="url(#F)" opacity=".62"/><path class="L" d="M142.19,203.56s6.29-1.12,11.66-5.43l1.7,4.12s-1.93-1.91-6.17-.18c-4.95,2.02-4.68,6-4.68,6l-2.51-4.52Z" opacity=".62" fill="url(#G)"/><path class="M BZ" d="M155.55,202.26c-1.21-.87-2.59-.89-2.59-.89l12.67,30.6,1.53-1.58-11.6-28.12Z" fill="url(#H)"/><path d="M155.55,202.26s-1.33,4.09,2.49,6.03l-2.49-6.03Z" class="Ba"/><path d="M346.23,400h-47c-4.92-27.32-16.36-62.87-16.36-62.87-2.78-1.65-8.21,.38-8.21,.38l-17.18,62.49h-42.94c-2.28-38.56,18.82-82.33,18.82-82.33h0c-.07-.16-.74-1.5-.56-2.4,.07-.39,.79-1.13,1.6-1.86,1.16-1.06,2.54-2.12,2.54-2.12l80.11-.5s.81,.41,1.84,1.03h.01c1.75,1.06,4.12,2.7,4.12,3.9,0,1.65-.65,2.72-.81,2.96l-.04,.05c17.18,32.42,24.07,81.27,24.07,81.27Z" fill="url(#I)"/><ellipse class="P BZ" cx="236.86" cy="367.92" rx="46.31" ry="17.92" transform="matrix(.224781 -.974409 .974409 .224781 -174.89 516)" fill="url(#J)"/><ellipse class="Q BZ" cx="320.06" cy="367.47" rx="17.92" ry="46.31" transform="matrix(.962928 -.26976 .26976 .962928 -87.28 99.99)" fill="url(#K)"/><path d="M251.92 400.04l-.49-.08c5.47-32.2 19.34-59.2 19.48-59.47l.06-.07 3.53-3.09.33.38-3.5 3.06c-.62 1.22-14.06 27.76-19.41 59.29z" fill="url(#L)"/><path d="M305.61 400.04c-5.36-31.55-19.16-58.35-19.78-59.54l-3.13-2.81.33-.37 3.22 2.91c.14.27 14.38 27.53 19.85 59.73l-.49.08z" fill="url(#M)"/><path class="T Bd" d="M323.01 315.72c0 1.65-.65 2.72-.81 2.96l-.04.05c-16.68 3.77-29.37 19.34-29.37 19.34 9.09 17.44 24.25 61.93 24.25 61.93h-17.81c-4.92-27.32-16.36-62.87-16.36-62.87-2.78-1.65-8.21.38-8.21.38L257.48 400h-11.12c3.98-26.18 15.73-58.14 15.73-58.14-11.55-13.45-28.73-24.19-28.73-24.19h0l-2.04-1.29 1.48-1.11c7.43 7.13 31.39 16.44 32.13 16.73l-30.53-18.59c1.16-1.06 2.54-2.12 2.54-2.12l80.11-.5a31.98 31.98 0 0 0 1.84 1.03l-21.88 12.04 26.01-8.14z" fill="url(#N)"/><path class="U Bd" d="M282.87 337.13l9.35-6.07-2.22 6.07-1.63 18.27-5.5-18.27z" fill="url(#O)"/><path class="V Bd" d="M274.66 337.51l-9.74-5.51-20.85-9.39 26.55 17.55 1.58 6.29 2.46-8.94z" fill="url(#P)"/><path d="M301.46 149.65l.11.66-1.66 5.66c-1.96 5.63-4.4 9.63-6.23 12.12-1.59 2.15-2.72 3.18-2.72 3.18-14.59-4.58-21.78-18.85-24.54-25.95-.02-.03-.03-.07-.04-.11-.53-1.34-.88-2.42-1.1-3.12h0l-.25-.88.18-.37.03-.05.7-1.5c1.91-4.18 3.18-8.09 4-11.17a60.36 60.36 0 0 0 1.27-5.71l.13-.85 6.8 3.59 23.43 12.4c-.35 2.15-.49 4.17-.5 5.94a37.33 37.33 0 0 0 .09 3.32 30.27 30.27 0 0 0 .28 2.68h0c0 .07.01.11.02.16z" fill="#fe9083"/><path d="M294.96 172.84a20.1 20.1 0 0 1-4.84 3.54c-.04.03-.08.05-.12.07l-.14-.08h0l-4.59-3.15c-6.12-4.61-16.34-13.93-19.26-26.49-.01-.02-.01-.03-.02-.05a31.14 31.14 0 0 1-.7-4.59h0c-.03-.42-.06-.83-.07-1.25 0 0 2.03 4.77 5.55 9.92 4.14 6.06 10.35 12.67 17.77 12.71 6.42.04 9.71-4.35 11.38-8.4.71-1.72 1.13-3.37 1.35-4.6.01-.01.01-.02.01-.02l.17-.95h0c.02-.15.04-.27.05-.38.06-.45.08-.71.08-.71s2.46 15.36-6.61 24.43z" fill="url(#Q)"/><path class="Y BZ" d="M294.96 172.84a20.1 20.1 0 0 1-4.84 3.54h-.26v-.02c-.51-.31-2.25-1.38-4.59-3.14-6.12-4.61-16.34-13.93-19.26-26.49-.01-.02-.01-.03-.02-.05a31.14 31.14 0 0 1-.7-4.59h0c-.03-.42-.06-.83-.07-1.25 0 0 2.03 4.77 5.55 9.92 0 0 4.04 11.1 12.78 16.6 4.38 2.75 7.7 2.35 10.14.73 2.44-1.61 4.02-4.42 4.95-6.54.93-2.13 1.23-4.12 1.28-5.58a13.47 13.47 0 0 0 0-.9c.71-1.72 1.13-3.37 1.35-4.6.01-.01.01-.02.01-.02l.17-.95h0c.02-.15.04-.27.05-.38.06-.45.08-.71.08-.71s2.46 15.36-6.61 24.43z" fill="url(#R)"/><path d="M351.12 263.53l-.16.08c-.82.1-3.37-.46-6.71-3.35h-.01s-.01-.03-.03-.04c0-.01-.02-.03-.04-.04-2.8-2.45-6.16-6.54-9.51-13.24-6.7-13.39-8.62-22.33-8.93-23.89l-.04-.24-3.91 6.2c-2.65 7.97-7.67 40.95-7.58 42.37s4.45 8.34 4.36 9.19c0 0 0 .01-.01.02-.12.86-2.08 2.75-2.64 4.81-.38 1.37 2.28 5.69 4.15 8.92h0c.97 1.69 1.72 3.07 1.72 3.59 0 1.51-4.74 8.9-4.74 8.9v3.98l-.07.07-.22.2-.18.15c-1.8 1.42-9.43 6.07-33.27 7.35-28.25 1.51-47.07-7.58-47.07-7.58l1.42-3.89s-1.32-1.13-1.42-1.7c-.09-.57 1.04-1.9 1.04-1.9s-2.84-1.51-2.84-3.41 5.69-7.76 5.5-12.79c-.19-5.02-4.55-9.47-5.12-12.31s7.39-9.85 7.39-9.85c-6.82-21.6-8.15-50.59-8.15-50.59l-1.32-1.52s-8.15 18.57-15.54 27.66a63.65 63.65 0 0 1-2.77 3.18c-2.06 2.23-4.25 4.32-6.36 6.15-5.12 4.46-9.77 7.39-10.95 7.16-1.9-.38-9.48-15.35-9.13-30.7.16-7.3 4.56-15.47 9.13-22.02l1.48-2.06c3.24-4.41 6.35-7.87 7.84-9.45l.91-.95s-1.04-3.35-1.75-6.26a1.6 1.6 0 0 0-.05-.21c0-.03-.01-.07-.02-.1-.01-.05-.02-.07-.02-.07-.42-1.79-.68-3.34-.44-3.72.63-1.01 4.3-2.15 4.93-2.9.63-.76 3.28-13.52 5.3-14.91 1.94-1.33 5.35-2.3 16.72-6.77l1.73-.68c12.75-5.05 25.26-11.18 25.26-11.18l4.8-5.9h2.14l-.7 1.5-.03.05a52.4 52.4 0 0 0 1.17 4.37c.01.04.02.08.04.11 6.6 20.82 23.58 27.53 23.58 27.53 11.8-8.71 11.57-22.54 11.57-22.54v-1.9l2.21.66 1.51 3.6s2.56 3.98 12.7 8.44c1.75.77 3.63 1.74 5.57 2.85 9.28 5.27 19.6 13.42 20.39 15.15.08.18.17.46.27.86h0c1.09 4.29 3.33 20.32 5.41 26.04 1.3 3.57 3.35 5.54 4.86 6.56q0 0 .02.01c1.12.77 1.94 1.01 1.94 1.01l.45 2.61c4.35 27.42-3.92 46.03-5.78 47.33z" fill="url(#S)"/><path class="a BZ" d="M242.29 211.77l-8.24 2.77-1.32-1.52s-8.15 18.57-15.54 27.66a63.65 63.65 0 0 1-2.77 3.18c-2.06 2.23-4.25 4.32-6.36 6.15l-6.28-27.07-3.19-20.55c3.24-4.41 6.35-7.87 7.84-9.45l.91-.95s-1.04-3.35-1.75-6.26a1.6 1.6 0 0 0-.05-.21c0-.03-.01-.07-.02-.1-.01-.05-.02-.07-.02-.07-.42-1.79-.68-3.34-.44-3.72.63-1.01 4.3-2.15 4.93-2.9.63-.76 3.28-13.52 5.3-14.91 0 0-1.32 12.25 5.69 27.79l3.41 4.8 9.98 8.02s3.79 5.03 7.92 7.34z" fill="url(#T)"/><path d="M218.45 233.93c-1.77 13.13-21.34 23.24-21.34 23.24-4.36 0-9.23-7.58-13.65-16.93s-4.69-36.21-4.92-37.87c-.24-1.66-2.7-4.98-2.85-6.4-.14-1.42 3.98-4.36 3.98-4.36l-.03-.07-.03-.07c-.43-.92-2.85-6.11-2.68-7.06.19-1.04 4.82-3.31 4.82-3.31l.29 5.11s10.78-2.04 14.43-10.39l.64-2.56 1.8 1.2v10.99s.37 1.71.94 1.71 4.77-2.1 5.65-1.81c.89.29 1.76 6.17 2.94 6.92 1.17.76 4.3 2.94 4.77 3.98.21.47.23 2.16.25 4.15.03 2.44.05 5.32.41 6.94.67 2.93 6.35 13.45 4.58 26.59z" fill="url(#U)"/><path d="M397.44 222.68c-.88 1.39-5.3 4.3-6.44 5.44-1.14 1.13 0 4.87 0 4.87-18.57 19.71-37.93 29.58-39.88 30.54-.11.05-.16.08-.16.08-11.66-7.84-10.66-20.75-6.79-31.63 3.7-10.44 10.04-19.01 10.32-19.38h.01s0-.01.01-.02c.21-.08 3.54-1.46 5.92-1.64.79-.06 1.51.25 2.19.68 1.42.88 2.62 2.27 3.78 1.69 1.71-.86 5.53-9.89 8.12-10.14 1.81-.17 4.32 1.67 5.99 2.72.73.46 1.3.77 1.58.69.95-.25 4.17-4.11 4.43-4.21.25-.11 1.72.97 1.72.97l-1.03 1.28c1.58 9.1 6.76 15.22 6.76 15.22l3.47-5.08s.89 6.53 0 7.92z" fill="url(#V)"/><path d="M301.51 149.26l-.05.39c-.05.27-.11.53-.19.8 0 0 0 .01-.01.02-1.19 4.41-6 8.92-12.07 6.75-6.63-2.37-19.25-29.1-19.25-29.1l1.27-5.71 29.95 24.4.33 2.31.02.14z" fill="#cb4d7a"/><path d="M201.78 144.37s-1.83-10.11-1.01-17.56-.21-15.92-.21-15.92-1.81-.76-3.14 0-4.42 8.46-3.03 14.65.32 21.03.32 21.03h-2.08l-4.55-6.25-2.21-.63s-12.73 12-12.54 19.14l1.66 6.35 15.67-.54 10.23-11.68.88-8.59z" fill="#ee8183"/><path d="M185.86 139.69s.33 7.96 2.11 14.78c0 0-.3 2.79-3.57 2.98l-.81-.9s-.57 3.17-3.46 3.41l-2.75-2.75.71 2.27s-.99 2.42-3.6 2.32c0 0-4.36-3.41-4.64-7.86l4.31-3.65v-2.79l5.12-3.6.09-2.04s3-2.23 6.47-2.18z" fill="url(#W)"/><path class="g Bb" d="M200.95 124.67s-.77 1.95-1.86 2.71-4.25 1.34-4.25 1.34l-.14 17.86h-2.08l-4.55-6.25s2.31 3.57 2.45 6.25l-1.8.88-1.56-5.35-.74 3.85.74 4.79s2.7-2.32 7.58-2.41l.73 1.33s-8.83 7.31-10.86 11.62c0 0 4.36-5.54 14.31-11.65l.95-2.94 1.26-7.01s-1.19-10.1-.16-15.02z" fill="url(#X)"/><path d="M208.35 155.8c-.82 2.46-9.41 12.69-10.36 14.91-.95 2.21-1.52 5.11-1.52 5.11-4.22 9.13-14.43 10.39-14.43 10.39l-.47-8.24s-5.49-3.16-6.42-4.89v-.03l-.12-.29c-.28-1.61-.04-7.58-.04-7.58l9.61-3.89c4.17-5.4 14.31-11.65 14.31-11.65l.47-2.83c-7.28-3.58-6.06-14.41-4.83-15.74 1.23-1.32 3.5-1.32 3.5-1.32s2.66 8.71 4.36 12.79c1.71 4.07 6.76 10.8 5.94 13.26z" fill="url(#Y)"/><g fill="#e28183"><path d="M179.39 141.87s1.07 9.95 4.22 14.68c0 0-3.99-4.96-4.31-12.65l.09-2.04zm-5.21 5.64s1.04 8.01 5.97 12.46c0 0-4.36-2.18-5.97-9.66v-2.79z"/></g><path class="j" d="M199.32,168.59s-10.83,10.52-17.75,9.38l.47,8.24s11.37-.99,15.07-12.95c0,0,1.33-3.44,2.22-4.67Z" opacity=".91" fill="url(#Z)"/><path d="M428.36 182.89s-9.95 18.19-21.6 23.78h-3.98l-9.19 13.93s-5.94-3.73-6.38-15.98c0 0 2.08-2.17 2.59-4.62 0 0-3.28-2.58-4.17-4.47-.88-1.9-1.2-7.58-1.83-9.92s-6-7.2-7.2-7.83-6.63-.95-6.63-.95-.76-1.96 0-2.9c.76-.95 9.22-4.24 13.83-1.08 0 0 .32 2.4.82 3.67.51 1.26 4.55 5.74 5.18 5.74s3.35-2.27 4.55-4.04c1.15-1.7 7.26-14.87 8.74-19.32.01-.05.02-.09.04-.13.02-.07.05-.14.06-.2.02-.05.03-.09.04-.13.01-.02.02-.03.02-.05 1.14-3.85 7.77-11.24 11.31-13.26 0 0 1.51-.38 2.33 1.51 0 0-2.84 8.09-5.81 12.89-.5.81-1.04 1.76-1.6 2.78h-.01c-2.53 4.65-5.38 10.74-5.79 11.63l-.05.11 1.58.81 4.27-4.05 4.38-4.15 10.05 10.61-.99 1.26-3.14 4.03 1.59.29 3.7-4.09 3.29 4.13z" fill="url(#a)"/><path class="l Bb" d="M426.03 186.76l-3.18 4.67s-17.45-13.46-21.24-14.6-5.18-.38-5.18-.38l-3.91 4.99s7.2 6.38 7.83 14.97c0 0-2.4-10.86-10.55-14.15.63 0 3.35-2.27 4.55-4.04 1.15-1.7 7.26-14.87 8.74-19.32-.2.76-.46 2.24.16 3.41.86 1.59 5.92.09 6.22 0h.01l-5.8 11.63-.05.11 1.58.81 4.27-4.05-2.14 4.97 15.58 2.75-3.14 4.03 1.59.29 4.66 3.91z" fill="url(#b)"/><path d="M413.86 166.66s3.03-.44 4.99 3.47l-.44 1.26s2.95.58 5.81 5.37c0 0-2.53 4.61-8.78 6.69 0 0-2.91-.82-3.41-3.28l.57-1.58-2.27 1.71s-2.72.82-3.92-3.22l7.45-10.42z" fill="url(#c)"/><path d="M429.27,181.63s.63-2.91-2.46-4.8l-6,6.63s.18,2.13,2.78,2.59c0,0,4.11-1.39,5.68-4.42Z" fill="url(#d)"/><path class="o" d="M385.63 195.53s6.95 7.76 17.15 11.14l-4.4 6.66-9.17-11.65.59-1.68s-3.67-2.76-4.17-4.47z" fill="url(#e)" opacity=".91"/><path d="M418.41,171.4s-2.91,4.8-5.81,7.2l-.57,1.58s5.64-3.81,7.71-8.2c0,0-.67-.48-1.34-.58Z" fill="#e28183"/><path class="p BZ" d="M397.44 222.68c-.88 1.39-5.3 4.3-6.44 5.44-1.14 1.13 0 4.87 0 4.87-18.57 19.71-37.93 29.58-39.88 30.54-.11.05-.16.08-.16.08-1.52.19-8.91-1.89-16.3-16.67-6.7-13.39-8.62-22.33-8.93-23.89l-.04-.24 1.63-2.21 2.42-27.28 1.7 5.49c6.44-7.77 12.51-19.7 12.51-19.7l.27.86h0c1.09 4.29 3.33 20.32 5.41 26.04 1.3 3.57 3.35 5.54 4.86 6.56v.02c-5.93 5.42-8.87 13.2-10.32 19.39-1.33 5.68-1.42 10.03-1.42 10.03s1.64-7.7 6.82-16.96c1.88-3.37 4.62-6.38 7.33-8.85 2.04-1.86 4.07-3.42 5.72-4.58 1.42.88 2.62 2.27 3.78 1.69-7.8 11.71-7.61 34.89-.28 30.47 7.32-4.42 9-13.8 9-13.8-1.73-11.43-1.21-24.32.18-26.77 1.69.06 6.52 3.45 6.8 3.37-.44 13.45 5.88 22.43 5.88 22.43l4.17-6.45c-6.07-10.23-5.62-20.19-5.62-20.19.25-.11 1.72.97 1.72.97l-1.03 1.28c1.58 9.1 6.76 15.22 6.76 15.22l3.47-5.08s.89 6.53 0 7.92z" fill="url(#f)"/><path class="q BZ" d="M317.04 306.81v3.98l-.07.07-.22.2-.18.15c-1.8 1.42-9.43 6.07-33.27 7.35-28.25 1.51-47.07-7.58-47.07-7.58l1.42-3.89s-1.32-1.13-1.42-1.7c-.09-.57 1.04-1.9 1.04-1.9s-2.84-1.51-2.84-3.41c0-1.71 4.64-6.66 5.39-11.31.09-.5.13-.99.11-1.48-.19-5-4.51-9.43-5.11-12.27v-.04c-.57-2.84 7.39-9.85 7.39-9.85-6.82-21.6-8.15-50.59-8.15-50.59l-1.32-1.52s-8.15 18.57-15.54 27.66c-7.39 9.1-18.19 16.87-20.08 16.49-4.36 0-9.23-7.58-13.65-16.93s-4.69-36.21-4.92-37.87c-.24-1.66-2.7-4.98-2.85-6.4 4.74 8.15 12.29 5.75 12.29 5.75-5.47.12-8.31-10.11-8.31-10.11l-.03-.07-.03-.07-2.67-7.05c.3.34 6.55 7.33 12.59 3.02 6.19-4.42 9.38-12.98 9.38-12.98v10.99s.37 1.71.94 1.71c-.37 5.06-1.44 11.22-2.74 17.29-2.81 13.13-6.66 25.81-6.66 25.81s10.44-5.68 14.11-20.08c1.75-6.89 2.04-12.88 1.87-17.24-.15-3.73-.64-6.28-.84-7.21-.01-.07-.03-.14-.05-.21 0-.03-.01-.07-.02-.1 0-.02-.01-.04-.01-.05l1.01 2.14 1.92 4.76c2.23 18.48-2.37 46.33-2.37 46.33 6.7-8.34 8.09-26.78 7.8-31.26l-.41-6.94-.25-4.15 13.71 8.18-2.53-8.02 9.98 8.02s8.97 10.8 18.19 12.06c9.22 1.27 43.07.51 43.07.51s-29.43 1.89-38.02 4.42-10.23 5.43-10.23 5.43c6.21 31.59 40.58 42.24 41.65 42.56-31.18-4.68-45.69-31.19-45.69-31.19s-.51 14.91 1.89 20.59 16.55 19.58 34.74 22.48a41.89 41.89 0 0 0 4.53.46c15.34.72 28.04-7.12 29.34-7.96.07-.05.11-.07.11-.07s-.01.02-.03.05c-.49.75-6.78 9.59-32.18 10.56a56.18 56.18 0 0 1-4.5-.01h-.02c-23.54-.99-35.53-16.67-35.53-16.67s-8.71 4.68-3.15 11.62c.06.07.12.15.18.22 1.64 1.89 5.25 4.2 9.52 6.58l.35.2c5.16 2.85 11.21 5.79 15.89 8.22.03.01.05.02.07.03 2.86 1.49 5.21 2.77 6.52 3.73 1.33.97 1.6 1.59.31 1.74-6.57.76-31.45-4.67-32.46-3.16-1.01 1.52 1.23 5.43 1.23 5.43 22.84 11.32 71.71 5.74 73.25 5.57-40.9 10.47-74.36-2.79-74.36-2.79l1.11 3.92s18.22 6.31 39.69 6.82c21.48.5 34.87-4.99 34.87-4.99l2.33-3.98z" fill="url(#g)"/><path class="r BZ" d="M300.31 216.87s16.27.88 27.02 3.73l-5.54 8.41s-8.34-7.34-21.47-12.14z" fill="url(#h)"/><path class="s BZ" d="M315.51 261.71s-10.15 8.47-20.13 12.38c-9.98 3.92-19.58 4.29-19.58 4.29s5.74 1.71 19.85-.57c14.12-2.27 18.95-9.92 18.95-9.92l.91-6.19z" fill="url(#i)"/><path class="t BZ" d="M320.06 294.32h0c-18.78 4.86-42.62-2.1-42.42-2.95s6.53.38 21.21-2.56c14.23-2.85 19.39-7.91 19.7-8.22-.12.86-2.08 2.75-2.64 4.81-.38 1.37 2.28 5.69 4.15 8.92z" fill="url(#j)"/><path class="u BZ" d="M269.05 219.42c-16.04 1.63-20.36 6.1-20.36 6.1-4.51.57-14.64-10.98-14.64-10.98l-1.32-1.52s-8.15 18.57-15.54 27.66a63.65 63.65 0 0 1-2.77 3.18l1.05-2.36s1.72-.82 2.22-9.85c.51-9.02-3.79-22.48-3.82-24.31s-.66-11.09-.66-11.09l13.71 8.18-2.53-8.02 9.98 8.02s3.91 5.88 13.78 10.78c9.31 4.63 19.75 4.26 20.9 4.21z" fill="url(#k)"/><path class="v BZ" d="M232.73,213.02l9.56-1.25s3.82,2.53,11.49,5.65l-6.39,9.43s2.54,13.44,9.82,21.01c0,0-19.32-10.73-22.04-19.75l-2.43-15.09Z" fill="url(#l)"/><path class="w BZ" d="M176.94 184.42l2.73 7.19s2.78 9.7 8.31 10.11 10.93-16.27 10.93-16.27v-10.99s-5.88 12.6-12.23 14.02-9.74-4.06-9.74-4.06z" fill="url(#m)"/><path class="x BZ" d="M209.99,178.73s4.93,9.85,10.99,12.88c0,0-7.21-17.5-5.69-27.79,0,0-2.65,1.65-5.3,14.91Z" fill="url(#n)"/><path class="y Bd" d="M329.74,193.32l1.7,5.49,1.72,45.05s-4.37-8.57-7.43-20.81l1.59-2.45s2.67-16.98,2.42-27.28Z" fill="url(#o)"/><path class="z BZ" d="M382.09,206.58s-.96,22.13,8.44,24.04l.47,2.37s-12.17-.45-8.91-26.41Z" fill="url(#p)"/><path class="AA Bc" d="M366.4 213.31s-.36.79-3.78-1.69c0 0-11.83 8.38-16.39 20.19 0 0 7.29-10.85 11.17-12.02s4.82 3.16 4.82 3.16 1.54-6.1 4.18-9.63z" fill="url(#q)"/><path class="AB BZ" d="M175.69 195.97s4.55 8.39 13.08 5.76c0 0-5.11 3.44-10.23.64 0 0-3.18-5.45-2.85-6.4z" fill="url(#r)"/><path class="AC BZ" d="M205.5,185.35s6.26,23.4-10.07,40.98c0,0,10.6-5.44,13.01-18.04s-2.94-22.93-2.94-22.93Z" fill="url(#s)"/><path class="AD BZ" d="M317.64 166.65s-.7 10.56-5.77 18.14c-5.06 7.58-15.1 12.69-15.1 12.69s12.6-4.64 18.38-11.18 2.49-19.66 2.49-19.66z" fill="url(#t)"/><path class="AE BZ" d="M253.19 150.76s0 8.83 2.84 17.83 27.51 24.73 27.51 24.73-25.43-10.56-30.35-20.06 0-22.5 0-22.5z" fill="url(#u)"/><path d="M252.9,192.82v14.38s33.11-.27,70.24,2.19l.85-12.95s-32.28-3.83-71.08-3.63Z" fill="url(#v)"/><g fill="#ebefff"><path d="M259.04 196.1c0-.25.13-.36.36-.36l6.71.2c.66.02 1.23.12 1.69.3s.83.43 1.11.75.47.69.59 1.14a4.89 4.89 0 0 1 .15 1.47l-.06 1.84a5.37 5.37 0 0 1-.24 1.46c-.14.43-.36.8-.66 1.1s-.68.52-1.15.68c-.47.15-1.04.22-1.7.2l-3.61-.11-.75-2.11h-.1l-.06 2.08-2.53-.08.26-8.57zm2.34 6.33l4.29.13c.48.01.83-.08 1.04-.29s.32-.58.34-1.12l.05-1.5c.02-.56-.07-.94-.27-1.15s-.54-.32-1.02-.33l-4.1-.12c-.06 0-.1.02-.14.05-.03.04-.05.08-.05.13l-.13 4.2zm11.89-2.5h-.09l-.08 2.68c0 .11.05.17.17.18l7.54.23-.07 2.32-9.89-.3c-.24 0-.35-.13-.35-.38l.25-8.21c0-.25.13-.36.37-.36l9.61.29c.25 0 .37.13.36.38l-.07 2.32-2.37.8h-.1l.04-1.19c0-.09-.04-.14-.12-.14l-5.07-.15c-.07 0-.11.02-.13.05-.02.04-.03.08-.03.12l-.03 1.12 4.18.13-.06 1.82-3.5-.11-.54-1.59zm16.77-.16h-.1l.03-.99c0-.1-.04-.15-.14-.15l-4.72-.14c-.17 0-.29.03-.36.1s-.1.18-.11.32v.22c-.01.17.01.28.07.33s.17.09.33.12l5.53.94a4.16 4.16 0 0 1 .89.25c.24.11.44.25.59.42s.25.38.31.63.08.54.07.88l-.02.71c-.01.37-.07.69-.17.97a1.68 1.68 0 0 1-.46.7c-.21.19-.49.32-.82.41-.34.09-.75.12-1.24.11l-7.96-.24.07-2.32 7.14.22c.21 0 .36-.03.43-.1.07-.08.11-.21.12-.41v-.25c.01-.16-.01-.27-.06-.33s-.15-.11-.31-.13l-5.34-.84c-.36-.06-.67-.14-.92-.25s-.46-.24-.62-.41-.27-.37-.34-.61-.09-.52-.08-.85l.02-.63c.02-.65.21-1.14.56-1.49.36-.35.93-.51 1.74-.48l7.95.24c.25 0 .38.14.37.4l-.06 1.84-2.37.79zm3.36 5.95l.27-8.94 2.53.08-.27 8.94-2.53-.08zm11.92-3.47v-.41c0-.14-.02-.27-.03-.38v-.11l2.51.08-.13 4.39c0 .23-.11.34-.32.34l-6.73-.2c-.66-.02-1.23-.12-1.69-.3s-.83-.43-1.11-.75-.48-.69-.59-1.14a4.89 4.89 0 0 1-.15-1.47l.06-1.84a5.37 5.37 0 0 1 .24-1.46c.14-.43.36-.8.66-1.1s.68-.52 1.15-.68c.47-.15 1.04-.22 1.7-.2l6.69.2c.24 0 .35.13.35.38l-.06 1.93-2.37.79h-.1l.03-.86c0-.08-.03-.12-.11-.13l-4.27-.13c-.25 0-.45 0-.62.05a.85.85 0 0 0-.42.22 1.04 1.04 0 0 0-.25.44c-.05.18-.09.41-.1.68l-.05 1.57c-.02.54.07.92.27 1.14s.54.34 1.02.35l4.24.13a.12.12 0 0 0 .14-.14l.04-1.36zm7.82-4.88c.19 0 .32.04.4.1s.14.15.21.28l3.2 6.53c.05.1.13.15.23.15h.13c.13 0 .2-.05.2-.19l.2-6.73 2.3.07-.26 8.59c0 .24-.12.35-.35.34l-3.64-.11c-.17 0-.3-.03-.38-.09-.08-.05-.16-.15-.23-.29l-3.32-6.52c-.05-.1-.12-.15-.23-.15h-.12c-.13 0-.2.06-.2.19l-.2 6.72-2.3-.07.26-8.58c0-.25.12-.36.35-.36l3.76.11z"/></g><path class="AH BZ" d="M305.29 152.67c-.78 9.3-3.61 15.78-6.63 20.15-4.16 6-8.66 8.05-8.66 8.05-4.5-1.96-8.4-4.4-11.76-7.09-14.26-11.4-18.86-27.2-19.21-28.5 6.02 14.54 14.86 23.35 21.56 28.31 5.4 4.01 9.41 5.52 9.41 5.52v-4.65a30.9 30.9 0 0 1-3.1-1.36c-11.8-5.95-18-18.35-20.9-26.37-.01-.02-.01-.03-.02-.05-1.57-4.34-2.18-7.39-2.18-7.39h2.14l-.7 1.5-.03.05a52.4 52.4 0 0 0 1.17 4.37c.01.04.02.08.04.11 6.6 20.82 23.58 27.53 23.58 27.53 11.8-8.71 11.57-22.54 11.57-22.54v-1.9l2.21.66 1.51 3.6z" fill="url(#w)"/><path class="AI Bc" d="M375.29 203.21s-3.21 10.48-.18 26.77c0 0 1.52-20.65 2.65-22.45 1.14-1.8 4.32-.95 4.32-.95s-5.01-2.77-6.8-3.37z" fill="url(#x)"/><path class="AJ BZ" d="M344.17 260.18c-2.8-2.45-6.16-6.54-9.51-13.24-6.7-13.39-8.62-22.33-8.93-23.89l1.59-2.45 2.13-20.6 1.99-1.19s7.11-7.85 12.51-19.7c.08.18.17.46.27.86h0c1.09 4.29 3.33 20.32 5.41 26.04 1.3 3.57 3.35 5.54 4.86 6.56 0 0-12.31 18.26-12.91 31.29-.53 11.86 2.11 15.72 2.59 16.32z" fill="url(#y)"/><path class="AK BZ" d="M271.08 298.26s-22.19-3.64-31.25-9.48c.08-.51.12-1 .1-1.49-.19-5-4.51-9.43-5.11-12.27.1.27.75 1.77 3.9 4.47 1.99 1.71 5 3.91 9.52 6.58l.35.2c6.4 3.78 11.91 6.34 15.89 8.22.03.01.05.02.07.03 3.58 1.68 5.9 2.79 6.52 3.73z" fill="url(#z)"/><path class="AL BZ" d="M318.55 280.59c-.12.86-2.08 2.75-2.64 4.81 0 0-8.14 8.62-38.27 5.97.2-.85 6.53.38 21.21-2.56 14.23-2.85 19.39-7.91 19.7-8.22z" fill="url(#AA)"/><path class="AM BZ" d="M323.56 163.96l-19.26 6.24-5.64 2.62h-.03l-3.67.02H290l-3.1.26-1.64.12-4.67.37-2.35.19-23.1-8.36-4.13-1.49-19-6.88 1.73-.68c12.75-5.05 25.26-11.18 25.26-11.18l4.8-5.9h2.14c1.91-4.18 3.18-8.09 4-11.17l1.27-5.71.13-.85 6.8 3.59 22.93 18.34a37.33 37.33 0 0 0 .09 3.32l.33 2.31c.06-.45.08-.71.08-.71l2.21.66 1.51 3.6s2.56 3.98 12.7 8.44c1.75.77 3.63 1.74 5.57 2.85z" fill="#7a4ac0"/><path d="M308.89 146.39s-8.98 2.02-18.89-2.78-18.24-18.95-18.75-22.48c-.5-3.54 3.79-12.76 3.79-19.96s-3.53-19.58 2.4-26.28c5.94-6.69 33.22-7.7 42.07.89 0 0 2.74 6.88 2.74 10.77 0 .94-.17 2.32-.42 3.91-.08.59-.19 1.22-.29 1.87-.79 4.71-1.88 10.46-1.37 12.98a12.64 12.64 0 0 0 .79 2.46h0c1.09 2.53 2.71 4.54 3 6.72.38 2.85-3.44 23.06-15.07 31.9z" fill="url(#AB)"/><path d="M274.97 99.14s-2.45-6.15-8.61-6.24c0 0-3.6 1.42-4.17 4.17 0 0 1.33 9.95 2.84 14.59s7.07 3.97 7.07 3.97 4.84-7.4 2.86-16.49z" fill="url(#AC)"/><path d="M298.63 119.39s2.05-.16 2.93.5 4.11 3.79 8.18 4.64 6.81-2.62 7.67-2.79c.87-.18 1.82 1.05 1.82 1.05s-.37-1.42-2.5-2.06c0 0-.86 3.27-6.76 2.15s-8.42-3.74-8.42-3.74l-.3-.54s-1.66.35-2.63.79z" fill="url(#AD)"/><path class="AQ Bb" d="M289.92 88.8l.08-.63s5.89-10.34 17.54-10.62 14.28 7.02 14.28 7.02l2.16-3.28-4.92-9.99-34.24-.57-8.34 6.73-1.05 16.47 3.71 21.74 9.02 4.81 2.55-2.26c-.94-7.28-6.35-13.93-6.35-13.93l3.95-2.74s10.14 4.91 15.99 3.44c0 0 4.41-12.86 4.15-22.38 0 0-15.02 2.22-18.53 6.21z" fill="url(#AE)"/><g fill="#38368e"><path d="M289.4 89.56s.57-3.72 6.85-5.21l12.69-3.06s-1.24 4.08-3.57 5.61c0 0-7.41-.27-11.15.58-3.75.85-4.81 2.08-4.81 2.08zm32.43-4.99s-3.55 2.74-5.97 9.28c0 0 2.32-3.03 4.45-2.98 1.46.03 1.23 1.48 1.23 1.48s1.45-3.91.29-7.77z"/></g><path d="M291.75,100.09s.38-7.86,8.05-9.85c0,0,2.75,3.55,3.03,7.58,0,0-4.07-.76-11.08,2.27Z" fill="url(#AF)"/><path d="M313.73,103.22s.62-6.26,4.22-8.57c0,0,2.45,1.84,2.2,7.08,0,0-2.15-.78-6.41,1.5Z" fill="url(#AG)"/><g fill="#ffebed"><path d="M291.75 100.09s2.49 3.06 9.47 3.66c0 0 1.33-2.02 1.2-5.99 0 0-6.41-.61-10.68 2.32zm21.98 3.13v.92s1.07 2.24 4.93 2.62c0 0 1.24-1.93 1.35-5.07 0 0-2.45-.61-6.27 1.54z"/></g><g fill="#7f9ec9"><path d="M299.21 97.61s-1.77 2.15-1.61 5.55c0 0 2.32.55 3.62.6 0 0 1.53-2.13 1.2-5.99 0 0-2.03-.44-3.21-.16zm18.17 4.18s-1 1.07-1.19 4.36c0 0 1.37.6 2.46.6 0 0 1.4-1.99 1.35-5.07 0 0-.98-.37-2.62.11z"/></g><g fill="#38368e"><path d="M298.63 103.39s-.63-4.25 1.8-5.87l1.99.25s.66 3.36-1.2 5.99l-2.59-.37zm19.63-1.78s-.9 1.89-1.32 4.83c0 0 .69.28 1.71.32 0 0 1.36-1.67 1.35-5.07 0 0-1.04-.28-1.74-.08z"/></g><g fill="#131163"><path d="M291.75 100.09s4.64-2.7 12.55-1.16l-1.47-1.11s-5.64-1.75-11.08 2.27zm21.98 3.13s3.72-1.98 8.06-.93l-1.79-1.32s-2.91-.45-6.27 2.25z"/></g><g class="Ba"><path d="M296.77 100.09s1.26-.28 2.4.87c0 0-1.56.46-2.4-.87zm18.66 3.67s1.98-.38 2.66.52c0 0-1.06.73-2.66-.52z"/></g><g fill="#c6659c"><path d="M292.21 100.55s3.61 3.57 9.39 4.42l.15-2.1-.53.89s-5.56-.33-9.01-3.2zm21.52 3.59s.64 2.31 5.34 3.35l-.15-1.13-.26.4s-3.34-.43-4.93-2.62z"/></g><path d="M304.3 113.36s1.75-.38 4.97 0 6.84 1.26 8.82 0c0 0-2.63 2.63-4.91 3.03s-5.75-1.6-5.75-1.6l-1.52.03s-1.17-.57-1.63-1.46z" fill="#cb5f7d"/><path d="M306.15 114.81s.79-.51 1.45-.38 1.34 1.09 1.34 1.09-1.4-.74-2.79-.71z" fill="#9f4a8b"/><path d="M318.09 113.36c.84-.82-3.52-8.58-5.6-8.87s-4.04 8.7-4.04 8.7l5.71.78c2.81.38 3.93-.61 3.93-.61z" fill="#ffbcaf"/><path class="Ab Bb" d="M321.21 88.92c-1.18-.15-5.35 4.92-5.35 4.92s-2.65 8.21-2.13 10.64c.52 2.44 6.96 3.73 6.96 3.73l.27-.43h0c-.33-.78-.61-1.59-.79-2.47-.51-2.52.58-8.27 1.37-12.98 0 0 .26-.97.29-1.87.03-.76-.08-1.48-.62-1.54z" fill="url(#AH)"/><path d="M321.02 122.26c-1.33-2.78-.51-4.23-12.06-5.74-16.35-2.15-17.75 2.84-20.53 2.08-.1-.03-.22-.07-.33-.12-3.01-1.17-10.1-8.14-10.28-17.53-.19-9.76 6.35-16.68 6.35-16.68-2.37-1.99-3.32-7.76-.76-10.23 2.56-2.46 6.92-1.89 17.62-.76 10.71 1.14 10.71.48 10.71.48 3.4.87 5.35 4.06 5.9 5.08.11.2.16.32.16.32l1.33-1.23c3.6 5.21 2.94 10.89 2.94 10.89s5.87-11.94 5.2-13.63c-1.22-3.12-4.61-7.67-4.82-7.96h-.01s-.95-9.1-3.79-9.1-14.97 2.74-14.97 2.74c1.33-3.12 1.14-6.72 1.14-6.72l-.05.05c-3.96 3.55-7.83 3.94-13.31 6.48-2.76 1.29-4.06 2.48-5.13 3.72l-.37.44-.39.47c-.38.48-.77.97-1.24 1.47-.02.03-.05.05-.06.06l-.03.03a15.68 15.68 0 0 1-1.59 1.49c-3.6 2.93-11.52 4.89-12.47 7.99-.95 3.09 1.2 7.32 2.34 11.68 1.13 4.36.61 8.21.61 8.21s3.77 4.86 2.52 11.97c-1.11 6.37-3.54 7.41-3.54 7.41-1.71 3.51-.9 6.79-.9 6.79 3.5 13.92 17.98 22.21 17.98 22.21 12.88 4.8 21.35 2.71 21.35 2.71h0c9.37-6.12 12.58-26.34 12.72-27.28-.16.25-1.9 2.95-2.25 2.21zm-5.78 12.89c-2.27-.38-2.75-6.13-3.5-6.89-.76-.75-4.87-.44-4.87-.44s-3.79 4.3-5.3 4.42c-1.52.13-9.6-3.16-7.85-8.08 1.74-4.93 7.85-5.56 7.85-5.56s3.16 2.65 7.89 2.96c4.74.31 6.45-.56 7.01-.81.57-.26 3.62 1.13 3.54 5.43-.05 2.99-2.49 9.35-4.77 8.97z" fill="url(#AI)"/><path d="M314.65 106.21s4.08 5.07 3.69 6.98c-.43 2.09-5.16 3.2-5.16 3.2s3.79-1.31 4.57-3.2c0 0-.97-3.84-3.11-6.98z" fill="#d2726c"/><path class="Ae Bb" d="M322.07 88.82s.66-5.68-2.94-10.89c2.89-5.16 3.31-10.71 3.31-10.71h.01c.98 2.42 1.54 7.11 1.54 7.11l3.28.86c.67 1.69-5.2 13.63-5.2 13.63z" fill="url(#AJ)"/><path class="Af Bb" d="M317.64 78.84c-.55-1.02-2.5-4.21-5.9-5.08 0 0 0 .66-10.71-.48-10.7-1.13-15.06-1.7-17.62.76-2.56 2.47-1.61 8.24.76 10.23 0 0-6.54 6.92-6.35 16.68.18 9.39 7.27 16.36 10.28 17.53l-.14 1.04s.53 21.5 5.76 23.21c5.22 1.7 16.06.82 17.07 1.83s-.14 2.61-.24 2.76h0s-8.47 2.1-21.35-2.7c0 0-14.48-8.29-17.98-22.21 0 0-.81-3.28.9-6.79 0 0 2.43-1.04 3.54-7.41 1.25-7.11-2.52-11.97-2.52-11.97s.52-3.85-.61-8.21c-1.14-4.36-3.29-8.59-2.34-11.68 6.06.95 10.04-2.21 10.04-2.21s1.06-1.47 5.75-2.23 23.54 1.14 23.54 1.14-1.89-1.57-5.87-2.61c-3.76-.99-16.6.16-17.98.27 1.47-.26 16.03-2.76 17.69-2.26 1.76.52 8.06 3.41 8.06 3.41-.57-2.89-6.21-9.85-6.21-9.85s-7.96.14-13.17 1.23c-4.65.97-7.2 3.1-7.7 3.54l1.24-1.47.39-.47.37-.44 1.82-.31 9.14-3.69c3.07-1.64 7-5.7 7.48-6.2l.05-.05s.19 3.6-1.14 6.72c7.72-.95 10.33-.47 10.33-.47 3.51 4.97 3.63 18.44 3.63 18.44z" fill="url(#AK)"/><path class="Ag BZ" d="M289.19 144.62s4.73-1.12 11.87-.84c7.14.29 11.25.32 9.48 3.55 0 0-8.97 2.03-21.35-2.71z" fill="url(#AL)"/><path d="M314.01 60.4s4.34-1.69 6.06-1.42c0 0-.68-.91-1.39-1.1s-15 2.98-15 2.98 8.91-1.04 10.33-.47z" fill="url(#AM)"/><path d="M305.2,62.01s-.34,4.73-1.85,6.44l-17.69,2.26-5.19-.92s2.01-.86,4.22-3.43c2.21-2.58,13.74-5.11,20.52-4.35Z" fill="url(#AN)"/><path d="M322.44 67.22s1.44 4.65 1.55 7.11l3.28.86s-1-3.52-4.83-7.97z" fill="url(#AO)"/><path class="Ak" d="M274.24 107.48s-1.24-5.97-4.29-8.92-6.52-2.01-6.52-2.01.95 11.07 1.94 13.77 2.51 3.41 2.51 3.41-2.13-1.87-2.42-5.53-.38-8.82.43-9.44 4.06 1.79 4.06 1.79-1.03 1.26-1.64 4.52c-.62 3.26 1.66 5.63 2.51 5.58s-.05-3.77.09-4.85 2.04-.84 3.33 1.67z" opacity=".8" fill="url(#AP)"/><path class="Al" d="M271.19 100.07s-3.33 2.19-2.97 6.67c.36 4.49 2.92 4.29 2.93 3.35 0-.94-.49-3.37-.23-4.74s2.47-.75 2.47-.75-1.46-3.56-2.21-4.53z" fill="url(#AQ)" opacity=".8"/><g fill="#34c7ff"><path d="M323.27 120.05s-4.14 18.87-12.73 27.28c0 0 9.8-3.85 12.73-27.28zm-4.59-62.16s2.18 1.7 2.6 7.59c.41 5.9-2.14 12.45-2.14 12.45s3.28-4.9 3.6-10.27-2.32-9.09-4.05-9.77z"/></g><path d="M292.24 70.24s5.05 1.72 10.59 2.21l6.68.6s-2.23-2.16-6.97-2.81-10.3 0-10.3 0z" fill="url(#AR)"/><path d="M316.64 120.46s2.42 0 3.37 3.03c.76 2.42.97 4.5.97 4.5l.86-3.32s-1.12-4.21-2.28-5.16c-.84-.68-2.28-1.37-2.96-1.21l.05 2.16z" fill="url(#AS)"/><path d="M310.13 117.43l.41 3.6s2.94.24 4.89-.57l.35-2.18s-3.75-.95-5.65-.85z" fill="url(#AT)"/><g fill="#34c7ff"><path d="M323.56 163.96s17.23 12.58 19.46 16.91c2.24 4.33 3.14 17.9 6.16 23.78l-3.52-17.14c-1.45-7.53-1.1-7.64-1.91-9.49s-13.67-10.77-20.2-14.06zM320.47 234s-8.3 35.54-7.93 37.94c.38 2.4 5.75 7.3 6 8.64 0 0-4.11 5.5-3.92 6.72s7.2 8.92 7.01 11.31c-.05.69-4.6 8.19-4.6 8.19s5.14-7.37 5.39-8.55-6.3-11.03-6.49-12.03c-.5-2.59 3.27-4.5 3.39-6.2.13-1.71-5.09-5.87-5.14-8.65-.04-2.78 6.27-37.38 6.27-37.38zm1.69 84.73s17.95 40.64 24.07 81.27c0 0-1.02-39.66-24.07-81.27z"/></g><path d="M208.35 155.8s-4.64-.99-6.57-5.04-.67-9.92-.67-9.92 3.64 6.98 5.45 9.36 2.3 5.1 1.79 5.6z" fill="#ffbcaf"/><path d="M351.66 134.61l3.22 91.8c.13 3.64 3.12 6.53 6.76 6.53h158.13c3.67 0 6.67-2.93 6.76-6.6l2.21-92.87a6.77 6.77 0 0 0-6.81-6.93l-163.56 1.07c-3.81.03-6.85 3.19-6.72 7z" fill="#36d1f7" class="Bb"/><path d="M519.77 233.19H361.64c-3.8 0-6.88-2.97-7.01-6.77l-3.22-91.8a6.92 6.92 0 0 1 1.95-5.1c1.32-1.38 3.1-2.15 5.02-2.16l163.57-1.07c1.9 0 3.71.73 5.05 2.1a6.95 6.95 0 0 1 2.01 5.08l-2.21 92.87a6.97 6.97 0 0 1-7.01 6.85zm2.21-106.4h-.04l-163.57 1.07a6.45 6.45 0 0 0-4.66 2 6.46 6.46 0 0 0-1.81 4.74l3.22 91.8c.12 3.53 2.98 6.29 6.51 6.29h158.13a6.55 6.55 0 0 0 6.51-6.36l2.21-92.87c.04-1.78-.62-3.45-1.87-4.72a6.45 6.45 0 0 0-4.64-1.95z" fill="#744ca2"/><path class="As Bb" d="M351.89 139.29h176.66l.28-4.84a7.42 7.42 0 0 0-7.46-7.85l-163.5 1.29c-3.41.03-6.15 2.84-6.08 6.25l.1 5.15z" fill="url(#AU)"/><path class="At Bc" d="M360.78 146.7v53.12h54.07v-53.4l-54.07.28z" fill="url(#AV)"/><path class="Au Bc" d="M467.11 150.26h23.52v23.52h-23.52z" fill="url(#AW)"/><path class="Av Bc" d="M494.86 150.26h23.52v23.52h-23.52z" fill="url(#AX)"/><path class="Aw Bc" d="M438.89 150.26h23.52v23.52h-23.52z" fill="url(#AY)"/><g class="Be"><path class="Ax" d="M458.23 187.5h60.15v5.63h-60.15z"/><use xlink:href="#Au" class="Ax"/><path class="Ax" d="M443.9 176.78h14.39v1.74H443.9zm27.78 0h14.39v1.74h-14.39zm27.75 0h14.39v1.74h-14.39zm-60.54 22.13h24.19v1.74h-24.19zm4.3 2.8h75.2v1.74h-75.2z"/><use xlink:href="#Av" class="Ax"/><path class="Ax" d="M438.89 207.31h79.49v1.74h-79.49zm4.3 11.32h75.2v1.74h-75.2zm-4.3 2.8h79.49v1.74h-79.49zm0 2.8h79.49v1.74h-79.49zm0-14.12h76.3v1.74h-76.3zm4.3 2.8h75.2v1.74h-75.2zm-4.3 2.8h64.41v1.74h-64.41z"/></g><g class="Ay"><path d="M375.93,189.17c-8.48,0-15.38-6.9-15.38-15.38s6.9-15.38,15.38-15.38,15.38,6.9,15.38,15.38-6.9,15.38-15.38,15.38Zm0-29.77c-7.93,0-14.38,6.45-14.38,14.38s6.45,14.38,14.38,14.38,14.38-6.45,14.38-14.38-6.45-14.38-14.38-14.38Z" fill="#e0ffff"/></g><circle cx="375.93" cy="173.78" r="8.36" class="Ba"/><g class="Ay"><path d="M414.85,161.8c-8.48,0-15.38-6.9-15.38-15.38s6.9-15.38,15.38-15.38,15.38,6.9,15.38,15.38-6.9,15.38-15.38,15.38Zm0-29.77c-7.93,0-14.38,6.45-14.38,14.38s6.45,14.38,14.38,14.38,14.38-6.45,14.38-14.38-6.45-14.38-14.38-14.38Z" fill="#e0ffff"/></g><circle cx="414.85" cy="146.42" r="7.87" transform="matrix(.1554 -.987852 .987852 .1554 205.73 533.47)" class="Ba"/><g class="Ay Ba"><path d="M358.08 132.08l1.13-1.7 6.08 5.32-.94 1.3-6.27-4.92z"/><path d="M365.44 132.08l-1.12-1.7-6.08 5.32.93 1.3 6.27-4.92z"/></g><path d="M469.84 131.53h54.44v2.73h-54.44z" class="Ba"/><path d="M183.35 92.12v23.63l28.26.24.38-24.62-28.64.75z" fill="url(#AZ)"/><path d="M211.99 91.37l1.84 3.1-.92 21.49-1.3.03.38-24.62z" fill="url(#Aa)"/><g class="Ba"><path d="M188.4 100.1l2.61-3.79 14.1 11.84-2.16 2.89-14.55-10.94z"/><path d="M205.48 100.1l-2.61-3.79-14.11 11.84 2.16 2.89 14.56-10.94z"/></g><path d="M249.27 370.18h-96.69a7.93 7.93 0 0 1-7.92-7.74l-1.81-79.31c-.1-4.44 3.47-8.1 7.92-8.1h100.67c4.46 0 8.04 3.68 7.92 8.14l-2.17 79.31a7.92 7.92 0 0 1-7.92 7.7z" fill="url(#Ab)" opacity=".81"/><path d="M249.27 370.43h-96.69c-4.4 0-8.07-3.58-8.17-7.98l-1.81-79.31a8.12 8.12 0 0 1 8.17-8.36h100.67c2.22 0 4.3.88 5.85 2.47a8.11 8.11 0 0 1 2.31 5.92l-2.18 79.31c-.12 4.46-3.71 7.94-8.17 7.94zm-98.49-95.14a7.59 7.59 0 0 0-7.66 7.85l1.81 79.31c.09 4.13 3.53 7.49 7.67 7.49h96.69a7.64 7.64 0 0 0 7.67-7.46l2.18-79.31c.06-2.09-.71-4.06-2.17-5.56s-3.41-2.32-5.5-2.32H150.8z" fill="#473da2"/><g class="Ba"><path d="M168.92 291.26h50.85v2.18h-50.85z"/><use xlink:href="#Aw"/><path d="M168.92 300.98h25.42v2.18h-25.42zm28.28 0h20.23v2.18H197.2zm-28.28 4.42h40.99v2.18h-40.99zm0 4.42h14.59V312h-14.59zm17.59 13.26h25.23v2.18h-25.23zm-17.59-8.84h45.73v2.18h-45.73zm0 4.42h35.18v2.18h-35.18zm0 4.42h16.55v2.18h-16.55zm0 4.42h25.42v2.18h-25.42zm0 4.42h7.29v2.18h-7.29zm10.3 0h26.46v2.18h-26.46zm7.29 4.29h25.23v2.18h-25.23zm-17.59 0h16.55v2.18h-16.55zm0 4.42h25.42v2.18h-25.42zm0 4.43h7.29v2.18h-7.29zm10.3 0h26.46v2.18h-26.46z"/></g><path d="M508.72 108.84a4.47 4.47 0 1 1-8.94 0 4.47 4.47 0 1 1 8.94 0z" fill="url(#Ac)"/><path d="M89.82 212.48a5.56 5.56 0 1 1-11.12 0 5.56 5.56 0 1 1 11.12 0z" fill="url(#Ad)"/><circle cx="517.37" cy="108.84" r="4.47" fill="url(#Ae)"/><circle cx="229.2" cy="139.57" r="3.16" fill="url(#Af)"/><circle cx="440.86" cy="279" r="3.16" fill="url(#Ag)"/><circle cx="112.34" cy="310.51" r="2.82" fill="url(#Ah)"/><path d="M160.49 282.77h-48.8a7.28 7.28 0 0 1-7.28-7.04l-1.08-32.1c-.14-4.12 3.16-7.53 7.28-7.53h50.86c4.11 0 7.41 3.4 7.28 7.51l-.98 32.1c-.12 3.93-3.34 7.06-7.28 7.06z" fill="url(#Ai)" opacity=".73"/><path d="M160.49 283.02h-48.8a7.51 7.51 0 0 1-7.53-7.28l-1.08-32.1a7.47 7.47 0 0 1 2.11-5.49c1.43-1.48 3.36-2.3 5.42-2.3h50.86c2.06 0 3.98.81 5.41 2.29s2.19 3.42 2.12 5.48l-.98 32.1a7.5 7.5 0 0 1-7.53 7.3zm-49.88-46.66a7 7 0 0 0-5.06 2.14c-1.34 1.38-2.04 3.2-1.97 5.13l1.08 32.1c.13 3.81 3.22 6.8 7.03 6.8h48.8a7.01 7.01 0 0 0 7.03-6.82l.98-32.1a6.95 6.95 0 0 0-1.98-5.11 6.98 6.98 0 0 0-5.05-2.14h-50.86z" fill="#953da2"/><g class="Ba"><path d="M124.7 247.64l-12.03 13.95 12.26 10.4v-5.37l-7.09-6.14 6.58-7.44.28-5.4zm21.15.63l12.04 13.94-12.26 10.4v-5.36l7.09-6.14-7.89-8.35 1.02-4.49zm-18.52 23.72l10.48-23.1h4.93l-11.88 23.1h-3.53z"/></g><path d="M488.82 348.82h-61.05a9.12 9.12 0 0 1-9.11-8.8l-1.36-40.15c-.17-5.15 3.95-9.42 9.11-9.42h63.63a9.12 9.12 0 0 1 9.11 9.39l-1.23 40.15a9.11 9.11 0 0 1-9.11 8.83z" opacity=".73" fill="url(#Aj)"/><path d="M488.82 349.07h-61.05c-5.08 0-9.18-3.97-9.36-9.04l-1.36-40.15c-.09-2.56.85-4.98 2.63-6.82s4.17-2.85 6.73-2.85h63.63c2.55 0 4.94 1.01 6.72 2.84s2.72 4.25 2.64 6.8L498.17 340c-.16 5.09-4.27 9.08-9.36 9.08zm-62.4-58.37a8.79 8.79 0 0 0-6.37 2.7 8.82 8.82 0 0 0-2.49 6.46l1.36 40.15c.16 4.8 4.05 8.56 8.86 8.56h61.05a8.82 8.82 0 0 0 8.86-8.59l1.23-40.15c.07-2.42-.81-4.71-2.5-6.44a8.76 8.76 0 0 0-6.36-2.69h-63.63z" fill="#953da2"/><path class="Ax Be" d="M429.55 296.91h55.91v33.21h-55.91z"/><path d="M452.55 305.15v16.73l14.29-9.13-14.29-7.6z" class="Ba"/><path class="Ax Be" d="M429.55 336.24h55.91v3.04h-55.91z"/><path d="M429.55 336.24h14.47v3.04h-14.47z" class="Ba"/><g class="Bf"><path d="M388.58 286.42l-2.92 8.35c1.61-4.61 3.93-7.61 2.92-8.35zm-2.92 8.35l-2.92 8.35c.74-.22 1.31-3.73 2.92-8.35zm2.92-8.35l-2.92 8.35c1.61-4.61 3.93-7.61 2.92-8.35zm-2.92 8.35l-2.92 8.35c.74-.22 1.31-3.73 2.92-8.35zm8.42 7.23l2.83 1.61 3.06-8.35-3.28-.55.16-.93c.24-1.43.32-2.83.28-4.16l3.43-2.15-1.56-7.36-3.29 3.14c-.46-.94-1.02-1.76-1.68-2.45a5.9 5.9 0 0 0-.57-.55l2.01-4.64-5.35-1.74h0l-1.28 4.68c-1.2 0-2.41.3-3.62.85l-.59-4.42-5.89 4.46 1.36 3.92c-1.06 1.21-2.03 2.61-2.87 4.18l-2.84-1.6-3.06 8.35 3.28.55c-.35 1.76-.48 3.47-.43 5.09l-3.43 2.15 1.56 7.36 3.29-3.14c.59 1.2 1.34 2.22 2.25 3l-2.01 4.65 5.26 2.05.81-2.96.55-2.02c1.2 0 2.42-.3 3.63-.84l.58 4.42 5.89-4.46-1.36-3.92c.83-.95 1.61-2.02 2.32-3.2l.56-.99zm-8.42-7.23c-1.62 4.61 0 9.37-2.92 8.35-2.93-1.03-4-5.6-2.38-10.2 1.62-4.61 5.3-7.51 8.22-6.49 2.93 1.02-1.31 3.73-2.92 8.35zm2.92-8.35l-2.92 8.35c1.61-4.61 3.93-7.61 2.92-8.35zm-2.92 8.35l-2.92 8.35c.74-.22 1.31-3.73 2.92-8.35z" fill="url(#Ak)"/><path d="M396.93 303.6l3.06-8.35-3.12-1.48-.5-.24.33-4.6 3.46-1.69-1.14-7.14-7.55-2.46 1.39 3.31 2.63-5.36-5.35-1.74-2.2-.72-5.27-2.05-.98 3.6-4.59-2.18-5.89 4.46 1.79 4.82-5.51 15.26-2.72 9.91 5.23.57-1.7 3.93 5.27 2.05 7.54 2.46-1.21-2.42-.76-1.45 2.79.91 4.76 1.55 5.89-4.46-3.64-4.29 4.6-2.83 3.39.62zm-16.57-10.69c1.62-4.61 5.3-7.51 8.22-6.49l-2.92 8.35-2.92 8.35c-2.93-1.03-4-5.6-2.38-10.2z" fill="url(#Al)"/><path d="M389.38 301.14l3.06-8.35-3.28-.55a23.13 23.13 0 0 0 .44-5.08l3.43-2.15-1.56-7.36-3.29 3.14c-.58-1.2-1.34-2.22-2.25-3l2.01-4.64-5.27-2.05-1.36 4.99c-1.19 0-2.42.3-3.62.84l-.58-4.42-5.89 4.45 1.36 3.92c-1.06 1.21-2.03 2.62-2.87 4.19l-2.84-1.6-3.06 8.35 3.28.55a23.13 23.13 0 0 0-.44 5.08l-3.43 2.15 1.56 7.36 3.29-3.14c.58 1.2 1.34 2.22 2.25 3l-2.01 4.64 5.27 2.05 1.36-4.99c1.19 0 2.42-.3 3.62-.84l.58 4.42 5.89-4.45-1.36-3.92c1.06-1.21 2.03-2.62 2.87-4.19l2.84 1.6zm-14.19-.49c-2.93-1.03-3.99-5.59-2.38-10.2s5.3-7.51 8.23-6.49c2.93 1.03 3.99 5.59 2.38 10.2s-5.3 7.51-8.23 6.49z" fill="url(#Am)"/><path class="BQ BZ" d="M400.57 287.46l-7.54-2.45-3.43 2.15 7.54 2.45 3.43-2.15z" fill="#601734"/><path class="BR" d="M392.58 310.1l-7.55-2.46-1.36-3.91 7.55 2.46 1.36 3.91z" fill="#b3d9ff"/><g fill="#601734"><path class="BQ BZ" d="M385.92 277.79l4.14 1.2 1.4-1.34 2.75.89 1.27-2.94-7.54-2.45-2.02 4.64zm-10.99 30.74l3.95 1.64-.33-2.49s-2.13 1.12-3.62.84zm.61-22.63l6.65 3.52s.96-1.29 1.71-1.81c0 0-1.74-7.34-8.37-1.71z"/></g></g><path d="M222.79 36.96l6.41 12.85-4.28 1.95-6-11.8 3.87-3z" fill="#ff1d9c"/><path d="M78.34 336.3l5.94 6.52 2.33-2.69-5.61-6.17-2.66 2.34z" fill="#6877ff"/><g fill="#4f31e0"><path d="M380.11 115.37l-5.98 3.63-2.39-4.55 6.54-3.81 1.83 4.73zm29.45 229.71l-8.57 6.09-2.4-4.54 8.32-4.86 2.65 3.31z"/></g><g class="Bf"><path d="M398.24 84.3l-1.45-33.66h44.07l-1.81 33.56-40.81.1z" fill="url(#An)"/><path d="M396.79 50.64l-1.32 1.98 1.32 31.68h1.45l-1.45-33.66z" fill="url(#Ao)"/></g><g class="Ba"><path d="M411.42 57.36l-6.91-.74.94 23.06 5.97-.58v-2.39l-3.46.08-.39-17.78 3.85.11v-1.76zm14.17 0l6.91-.74-.95 23.06-5.96-.58v-2.39l3.45.08.4-17.78-3.85.11v-1.76z"/></g><g class="Bf"><path d="M94.35 157.98l.99-22.95H65.3l1.23 22.88 27.82.07z" fill="url(#Ap)"/><path d="M95.34 135.03l.9 1.36-.9 21.59h-.99l.99-22.95z" fill="url(#Aq)"/></g><g class="Ba"><path d="M83.77 139.65s3.29-.13 3.88.14c.58.27-.15 5.64-.15 5.64l1.31 1.21-1.23 1.19s.06 5.44-.71 5.89-3.42 0-3.42 0v-1.36s2.16.14 2.52-.15.32-5.04.32-5.04l.58-.64-.58-.69.04-4.32c-.04-.62-2.56-.65-2.56-.65v-1.22zm-7.55 0s-3.29-.13-3.88.14.15 5.64.15 5.64l-1.31 1.21 1.23 1.19s-.06 5.44.71 5.89 3.42 0 3.42 0v-1.36s-2.16.14-2.52-.15-.32-5.04-.32-5.04l-.58-.64.58-.69-.04-4.32c.04-.62 2.56-.65 2.56-.65v-1.22z"/></g><g fill="#744ca2"><path d="M347.86 87.33l-7.36-19.27 19.09 3.99-11.73 15.28zm-6.57-18.59l6.72 17.58 10.7-13.94-17.42-3.64zm58.925 291.465l6.467-8.824.403.296-6.467 8.824zM339.92 279.16l-6.95-8.65.39-.31 6.95 8.65-.39.31zm-214.33 60.72l-13.87-10.06.29-.4 13.87 10.06-.29.4z"/><path d="M113.404 341.317l10.381-13.626.398.303-10.381 13.626zM94.229 187.658l.233-.443 8.976 4.717-.233.443zM448.05 71.37l-.37-.33 10.37-11.83.37.33-10.37 11.83zm-201.914 28.835l.448-.223 4.637 9.32-.448.223zm-73.359 166.582l11.92-9.97.321.384-11.92 9.97z"/></g></g></svg>